<svg width="197" height="66" viewBox="0 0 197 66" fill="none" xmlns="http://www.w3.org/2000/svg">
<g clip-path="url(#clip0_315_116)">
<path id="tagline" d="M151.039 60.823H147.48V58.4286H151.599V57.2142H145.976V65.8772H151.638V64.6727H147.48V62.0079H151.039V60.8181V60.823ZM138.475 58.4286H140.323C140.825 58.4384 141.218 58.581 141.503 58.8613C141.788 59.1415 141.93 59.5152 141.93 59.9822C141.93 60.4493 141.788 60.823 141.508 61.0737C141.228 61.3245 140.82 61.4523 140.284 61.4523H138.475V58.4286ZM140.264 62.6667C141.267 62.6667 142.048 62.4307 142.604 61.9587C143.159 61.4867 143.439 60.823 143.439 59.9773C143.439 59.1317 143.154 58.4778 142.584 57.9763C142.014 57.4748 141.247 57.2191 140.279 57.2191H136.966V65.8821H138.47V62.6667H140.259H140.264ZM132.744 61.7719C132.744 62.7454 132.562 63.4878 132.203 63.9991C131.844 64.5055 131.333 64.7612 130.665 64.7612C129.996 64.7612 129.49 64.5006 129.121 63.9794C128.752 63.4583 128.566 62.7257 128.566 61.7719V61.2704C128.575 60.3362 128.762 59.6184 129.126 59.1071C129.495 58.5958 130.001 58.3401 130.65 58.3401C131.299 58.3401 131.829 58.5958 132.193 59.1071C132.557 59.6184 132.739 60.3559 132.739 61.3146V61.767L132.744 61.7719ZM134.248 61.2901C134.248 60.4444 134.095 59.702 133.796 59.0678C133.496 58.4286 133.078 57.9419 132.532 57.6026C131.987 57.2634 131.362 57.0913 130.655 57.0913C129.947 57.0913 129.323 57.2634 128.777 57.6075C128.231 57.9517 127.809 58.4483 127.509 59.0924C127.209 59.7413 127.062 60.4837 127.062 61.3294V61.8161C127.062 62.647 127.219 63.3796 127.519 64.0138C127.819 64.6481 128.241 65.1397 128.792 65.479C129.342 65.8182 129.967 65.9952 130.669 65.9952C131.372 65.9952 132.006 65.8231 132.552 65.479C133.098 65.1348 133.515 64.6432 133.81 64.004C134.105 63.3648 134.253 62.6175 134.253 61.767V61.2851L134.248 61.2901ZM120.018 58.4286H121.606C122.127 58.4384 122.525 58.5663 122.785 58.8219C123.051 59.0776 123.183 59.4365 123.183 59.8987C123.183 60.3608 123.041 60.6952 122.756 60.9508C122.471 61.2065 122.072 61.3343 121.566 61.3343H120.018V58.4286ZM123.434 65.8772H125.046V65.7985L123.1 62.1898C123.601 61.9784 123.989 61.6785 124.27 61.2901C124.55 60.8967 124.687 60.4149 124.687 59.8348C124.687 58.9842 124.417 58.3352 123.872 57.8878C123.326 57.4404 122.554 57.2142 121.556 57.2142H118.509V65.8772H120.013V62.5438H121.689L123.424 65.8772H123.434ZM114.188 57.2142V62.9617C114.188 64.1859 113.608 64.7956 112.453 64.7956C111.883 64.7956 111.45 64.6432 111.156 64.3383C110.861 64.0335 110.713 63.591 110.713 63.0109V57.2142H109.214V63.001C109.214 63.9401 109.504 64.6776 110.089 65.2086C110.674 65.7396 111.46 66.005 112.448 66.005C113.436 66.005 114.213 65.7346 114.803 65.1987C115.393 64.6628 115.687 63.9303 115.687 63.0109V57.2191H114.188V57.2142ZM106.304 60.8181H102.745V58.4237H106.864V57.2093H101.241V65.8723H106.904V64.6677H102.745V62.003H106.304V60.8132V60.8181ZM93.5045 61.4326H90.2211V62.5733H92.0053V64.2695C91.6809 64.6186 91.1304 64.7907 90.3636 64.7907C89.6607 64.7907 89.1151 64.5301 88.717 64.0138C88.3238 63.4976 88.1271 62.7699 88.1271 61.8358V61.1721C88.137 60.233 88.3188 59.5201 88.6727 59.0334C89.0217 58.5466 89.5378 58.3057 90.2112 58.3057C91.2533 58.3057 91.8579 58.8269 92.025 59.8692H93.4996C93.3816 58.9744 93.0425 58.286 92.4772 57.8091C91.912 57.3322 91.1452 57.0913 90.1818 57.0913C89.0611 57.0913 88.1861 57.4601 87.557 58.1975C86.9278 58.935 86.6181 59.9577 86.6181 61.2655V61.944C86.628 62.7601 86.7902 63.4779 87.09 64.0876C87.3947 64.7022 87.8273 65.1741 88.3827 65.5036C88.9382 65.833 89.587 65.9952 90.3095 65.9952C91.0321 65.9952 91.6465 65.892 92.202 65.6805C92.7574 65.4691 93.1899 65.1594 93.5045 64.7513V61.4326ZM83.8655 57.2142H82.3713V63.3845L78.498 57.2142H76.9939V65.8772H78.498V59.7315L82.3614 65.8772H83.8655V57.2142ZM73.9267 57.2142H72.4275V65.8772H73.9267V57.2142ZM64.5286 57.2142H62.8574L65.7672 62.6913V65.8821H67.2763V62.6913L70.1812 57.2142H68.5149L66.5193 61.3196L64.5286 57.2142ZM60.7733 61.0049H57.2883V58.4286H61.2845V57.2142H55.7793V65.8772H57.2834V62.2045H60.7683V61L60.7733 61.0049ZM52.7121 57.2142H51.2129V65.8772H52.7121V57.2142ZM43.8055 58.4286H45.3932C45.9142 58.4384 46.3123 58.5663 46.5728 58.8219C46.8383 59.0776 46.9661 59.4365 46.9661 59.8987C46.9661 60.3608 46.8235 60.6952 46.5384 60.9508C46.2533 61.2065 45.8552 61.3343 45.3489 61.3343H43.8006V58.4286H43.8055ZM47.2217 65.8772H48.8339V65.7985L46.8874 62.1898C47.3888 61.9784 47.7771 61.6785 48.0573 61.2901C48.3374 60.8967 48.4751 60.4149 48.4751 59.8348C48.4751 58.9842 48.2047 58.3352 47.6591 57.8878C47.1135 57.4404 46.3418 57.2142 45.344 57.2142H42.2965V65.8772H43.8006V62.5438H45.4767L47.2118 65.8772H47.2217ZM39.947 57.2142H33.0753V58.4286H35.7542V65.8772H37.2484V58.4286H39.9519V57.2142H39.947ZM29.7968 63.06C29.7181 63.6795 29.5264 64.122 29.2315 64.3875C28.9366 64.653 28.4893 64.7857 27.8995 64.7857C27.2555 64.7857 26.764 64.5399 26.4248 64.0483C26.0906 63.5566 25.9235 62.8437 25.9235 61.9046V61.1376C25.9333 60.2133 26.1103 59.5103 26.4593 59.0334C26.8082 58.5564 27.3145 58.3155 27.9683 58.3155C28.5335 58.3155 28.9612 58.4532 29.2512 58.7285C29.5412 59.0039 29.723 59.4513 29.7968 60.0757H31.296C31.2026 59.1268 30.8634 58.3942 30.2785 57.878C29.6936 57.3617 28.9268 57.1011 27.9683 57.1011C27.2605 57.1011 26.6313 57.2683 26.0906 57.6075C25.5499 57.9419 25.1321 58.4237 24.8421 59.0481C24.5521 59.6725 24.4096 60.3903 24.4096 61.2065V62.0177C24.4194 62.8142 24.5718 63.5173 24.8569 64.1171C25.1419 64.7218 25.5499 65.184 26.0759 65.5134C26.6018 65.8428 27.2113 66.005 27.8995 66.005C28.8874 66.005 29.6788 65.7445 30.2736 65.2282C30.8683 64.712 31.2075 63.9893 31.296 63.0649H29.7968V63.06ZM21.6422 60.823H18.0835V58.4286H22.2026V57.2142H16.5794V65.8772H22.2419V64.6727H18.0835V62.0079H21.6422V60.8181V60.823ZM10.273 57.2191H8.76894V65.8821H14.2053V64.6776H10.273V57.2142V57.2191ZM5.72143 60.823H2.16272V58.4286H6.28178V57.2142H0.668457V65.8772H6.33093V64.6727H2.17255V62.0079H5.73126V60.8181L5.72143 60.823Z" fill="#283778"/>
<path d="M159.921 19.5876C153.363 23.0784 148.546 28.8947 148.463 34.3816C148.561 40.8961 155.335 47.8727 163.769 50.8718C163.052 45.675 159.935 24.7009 159.921 19.5926" fill="#49528C"/>
<path d="M183.504 24.3568C177.532 22.3852 170.538 23.8061 165.627 28.6342C163.931 30.3599 162.653 32.3511 161.798 34.4554C165.932 40.1734 173.723 44.2541 180.825 44.2541C181.833 44.2541 182.801 44.1804 183.735 44.0378C185.402 41.3386 186.419 38.0691 186.424 34.3817C186.419 30.5271 185.313 27.1248 183.504 24.3568Z" fill="#213669"/>
<path d="M183.411 24.4502C185.761 25.227 186.985 26.9872 188.823 28.8309C190.873 30.8811 193.512 33.1968 194.628 36.2402C196.152 33.3787 196.982 29.8191 196.982 25.6597C196.982 14.1451 191.546 1.27353 173.964 7.62082C165.219 10.7773 161.479 15.566 159.921 19.5877C161.818 18.5749 164.118 18.5258 166.237 17.9702C172.637 16.2543 179.533 18.4963 183.411 24.4502Z" fill="#8F93C1"/>
<path d="M183.637 43.9393C178.835 49.8392 172.622 53.1628 166.094 51.4125C165.347 51.2159 164.492 51.1274 163.769 50.8717C164.256 51.5403 164.802 52.1795 165.401 52.7793C171.855 59.2348 185.426 61.9586 192.244 55.2278C196.835 50.5767 197.022 42.7741 194.628 36.24C192.362 40.5027 187.923 42.5234 183.637 43.9393Z" fill="#4F63A7"/>
<path d="M183.411 24.4502C185.2 27.1936 186.292 30.5566 186.301 34.3767C186.296 38.0298 185.289 41.2599 183.642 43.9395C188.557 43.1922 192.362 40.4979 194.633 36.2401C193.522 33.1968 191.851 30.4287 189.801 28.3834C187.963 26.5397 185.766 25.2319 183.416 24.4551" fill="#293E7F"/>
<path d="M159.006 26.9282C159.188 29.593 160.26 32.1546 161.916 34.4506C162.766 32.3611 164.03 30.3944 165.706 28.6835C170.567 23.9046 177.493 22.4935 183.406 24.4503C179.528 18.4914 172.371 15.4825 165.976 17.2033C163.858 17.7588 161.813 18.575 159.916 19.5878C158.343 23.6538 159.001 26.9332 159.001 26.9332" fill="#293E7F"/>
<path d="M183.637 43.9396C182.713 44.0773 181.754 44.156 180.757 44.156C173.728 44.156 166.011 40.1145 161.916 34.4556C159.709 39.8933 160.328 46.1521 163.769 50.872C164.497 51.1326 165.229 51.3636 165.981 51.5603C172.509 53.3106 179.818 50.1394 183.642 43.9445" fill="#293E7F"/>
<path d="M161.719 31.9184H176.421C176.22 29.7011 175.659 28.0442 174.735 26.933C173.315 25.2122 171.471 24.3518 169.205 24.3518C167.156 24.3518 165.43 25.0402 164.035 26.4119C162.639 27.7836 161.867 29.6175 161.719 31.9184ZM176.372 39.136L180.983 39.7063C180.255 42.4006 178.908 44.4901 176.942 45.9798C174.976 47.4695 172.464 48.2119 169.407 48.2119C165.558 48.2119 162.501 47.0271 160.245 44.6523C157.989 42.2826 156.863 38.954 156.863 34.6717C156.863 30.3894 158.003 26.8052 160.284 24.3568C162.565 21.9083 165.524 20.6841 169.161 20.6841C172.799 20.6841 175.556 21.8837 177.788 24.2781C180.019 26.6774 181.135 30.0501 181.135 34.3964C181.135 34.6619 181.125 35.0601 181.11 35.5862H161.474C161.636 38.4771 162.457 40.6945 163.926 42.2334C165.396 43.7723 167.234 44.5393 169.432 44.5393C171.068 44.5393 172.464 44.1066 173.619 43.2511C174.775 42.3907 175.694 41.019 176.372 39.136Z" fill="#FCC428"/>
<path d="M125.228 34.4456C125.228 37.8183 125.965 40.3455 127.435 42.022C128.905 43.6986 130.758 44.5393 132.989 44.5393C135.221 44.5393 137.045 43.6986 138.519 42.0122C139.989 40.3258 140.726 37.7544 140.726 34.2981C140.726 31.0433 139.984 28.5752 138.509 26.8937C137.03 25.2172 135.191 24.3765 132.994 24.3765C130.797 24.3765 128.91 25.2123 127.44 26.879C125.97 28.5457 125.233 31.0679 125.233 34.4407M120.647 34.4407C120.647 29.5634 122.004 25.9498 124.712 23.6046C126.973 21.6527 129.735 20.6792 132.994 20.6792C136.612 20.6792 139.571 21.8641 141.871 24.2388C144.167 26.6086 145.317 29.8879 145.317 34.0719C145.317 37.4594 144.806 40.1291 143.793 42.0712C142.776 44.0132 141.296 45.5226 139.355 46.5944C137.413 47.6662 135.295 48.2071 132.994 48.2071C129.308 48.2071 126.329 47.0271 124.058 44.6622C121.787 42.2973 120.652 38.8951 120.652 34.4456" fill="#283778"/>
<path d="M89.0364 39.7555L93.4504 39.0622C93.6962 40.8322 94.3892 42.1843 95.5197 43.1282C96.6503 44.0722 98.233 44.5393 100.268 44.5393C102.303 44.5393 103.837 44.1214 104.829 43.2856C105.822 42.4498 106.319 41.4714 106.319 40.3455C106.319 39.3376 105.881 38.546 105.006 37.9658C104.397 37.5676 102.873 37.0661 100.445 36.4515C97.1713 35.6256 94.9053 34.9077 93.6372 34.3079C92.3739 33.7032 91.4154 32.8674 90.7617 31.8054C90.1079 30.7385 89.7835 29.5634 89.7835 28.2704C89.7835 27.0953 90.0539 26.0088 90.5897 25.0107C91.1254 24.0126 91.8578 23.1817 92.7819 22.518C93.475 22.0067 94.4236 21.5691 95.6181 21.2151C96.8174 20.8562 98.1003 20.6792 99.4717 20.6792C101.536 20.6792 103.355 20.9742 104.913 21.574C106.476 22.1689 107.626 22.9752 108.373 23.988C109.116 25.0058 109.632 26.3677 109.912 28.0688L105.547 28.6637C105.346 27.3067 104.775 26.2497 103.822 25.4876C102.873 24.7255 101.526 24.347 99.7912 24.347C97.7415 24.347 96.2767 24.6862 95.4018 25.3647C94.5268 26.0432 94.0894 26.8347 94.0894 27.7443C94.0894 28.3245 94.2712 28.8456 94.635 29.3078C94.9987 29.7896 95.5689 30.1829 96.3455 30.4976C96.7928 30.6647 98.1052 31.0433 100.288 31.6382C103.443 32.479 105.645 33.1722 106.894 33.7081C108.142 34.2489 109.12 35.0257 109.833 36.0533C110.541 37.0759 110.9 38.3493 110.9 39.8735C110.9 41.3976 110.467 42.7644 109.597 44.0771C108.732 45.3899 107.479 46.4076 105.842 47.1254C104.205 47.8432 102.357 48.2021 100.288 48.2021C96.8665 48.2021 94.2614 47.4942 92.4673 46.0733C90.6732 44.6524 89.5279 42.5432 89.0315 39.7506" fill="#283778"/>
<path d="M80.3658 43.6247L81.0097 47.5678C79.7563 47.8333 78.6307 47.9661 77.6378 47.9661C76.0157 47.9661 74.7623 47.7104 73.8677 47.1991C72.9731 46.6878 72.3489 46.0142 71.9851 45.1784C71.6214 44.3475 71.4395 42.5873 71.4395 39.9078V24.755H68.1659V21.2839H71.4395V14.7645L75.8781 12.085V21.2839H80.3658V24.755H75.8781V40.1536C75.8781 41.427 75.9567 42.2481 76.114 42.607C76.2713 42.9708 76.5269 43.2609 76.8808 43.4772C77.2347 43.6936 77.7459 43.8017 78.4046 43.8017C78.901 43.8017 79.5548 43.7427 80.3609 43.6297" fill="#283778"/>
<path d="M36.2949 47.6121V21.279H40.3108V25.0254C42.2425 22.1345 45.0393 20.6841 48.6914 20.6841C50.2791 20.6841 51.734 20.9692 53.0661 21.5396C54.3981 22.1099 55.391 22.8572 56.0546 23.7815C56.7182 24.7058 57.1802 25.8071 57.4456 27.0805C57.6128 27.9065 57.6914 29.352 57.6914 31.4219V47.6121H53.2283V31.5939C53.2283 29.7748 53.0562 28.4178 52.7073 27.5132C52.3583 26.6135 51.7438 25.8907 50.8591 25.3548C49.9743 24.8189 48.9372 24.5485 47.7477 24.5485C45.8454 24.5485 44.2086 25.1532 42.8274 26.3578C41.4462 27.5673 40.7581 29.8535 40.7581 33.2262V47.6072H36.2949V47.6121Z" fill="#283778"/>
<path d="M5.33316 31.9184H20.035C19.8383 29.7011 19.2731 28.0442 18.349 26.933C16.9285 25.2122 15.0852 24.3518 12.8192 24.3518C10.7695 24.3518 9.04425 25.0402 7.64829 26.4119C6.25233 27.7836 5.48063 29.6175 5.33316 31.9184ZM19.9858 39.136L24.5964 39.7063C23.8689 42.4006 22.5221 44.4901 20.556 45.9798C18.5898 47.4695 16.0781 48.2119 13.0208 48.2119C9.17205 48.2119 6.11962 47.027 3.85856 44.6523C1.60242 42.2826 0.476807 38.954 0.476807 34.6717C0.476807 30.3894 1.61717 26.8052 3.89788 24.3568C6.1786 21.9083 9.13764 20.6841 12.775 20.6841C16.4123 20.6841 19.1699 21.8837 21.4014 24.2781C23.633 26.6774 24.7488 30.0501 24.7488 34.3964C24.7488 34.6619 24.7389 35.0601 24.7242 35.5862H5.0874C5.25452 38.4771 6.07047 40.6945 7.54015 42.2334C9.00984 43.7723 10.8482 44.5393 13.0453 44.5393C14.6821 44.5393 16.0781 44.1066 17.2332 43.2511C18.3883 42.3907 19.3075 41.019 19.9858 39.136Z" fill="#283778"/>
</g>
<defs>
<clipPath id="clip0_315_116">
<rect width="196.982" height="66" fill="white"/>
</clipPath>
</defs>
</svg>
